# xmcd CD database file
#
# Track frame offsets:
#	150
#	12701
#	42907
#	58212
#	81336
#	99350
#	115985
#	127919
#	147059
#	166665
#	180914
#	208173
#	228994
#	246916
#	269032
#	291968
#
# Disc length: 4248 seconds
#
# Revision: 0
# Processed by: cddbd v1.5.1PL0 Copyright (c) Steve Scherf et al.
# Submitted via: CDex 1.51
#
DISCID=e6109610
DTITLE=Hans Jørn Wolff All Star Jazzband - Frokost Jazz - Live på Penny Lane
DYEAR=2005
DGENRE=Jazz
TTITLE0=Tell Me Your Dreams
TTITLE1=All Of Me
TTITLE2=Over In The Glory Land
TTITLE3=Careless Love Blues
TTITLE4=Down By The Riverside
TTITLE5=You Always Hurt The One You Love
TTITLE6=Algiers Strut
TTITLE7=Give Me That Old Time Religion
TTITLE8=I Can't Give You Anything But Love
TTITLE9=Royal Garden Blues
TTITLE10=Saint Louis Blues
TTITLE11=Making Whoopee
TTITLE12=Bugle Boy March
TTITLE13=Shine
TTITLE14=Up A Lazy River
TTITLE15=Ice Cream
EXTD=YEAR: 2005
EXTT0=
EXTT1=
EXTT2=
EXTT3=
EXTT4=
EXTT5=
EXTT6=
EXTT7=
EXTT8=
EXTT9=
EXTT10=
EXTT11=
EXTT12=
EXTT13=
EXTT14=
EXTT15=
PLAYORDER=
